<svg id="alarm_icon" data-name="Layer 1" xmlns="http://www.w3.org/2000/svg" viewBox="0 0 64 57.67"><defs><style>.cls-1{fill:none;stroke:#f1f1f1;stroke-miterlimit:10;}</style></defs><title>alarmIcon_2</title><path class="cls-1" d="M68,36.12c-.7,2.09-1.39,4.18-2.15,6.45l-3-1.71c3.44-7.49,1.94-13.7-4.64-18.66l1.35-2.27a2.77,2.77,0,0,1,.37-.41,16.56,16.56,0,0,1,7.51,10.13c.18.66.35,1.33.53,2Z" transform="translate(-4.5 -9.44)"/><path class="cls-1" d="M5,31.92c.67-2.85,1.36-5.73,3.32-8,1.38-1.6,3-3,4.64-4.73l1.84,3.05C8.51,26.49,6.58,33.8,10.17,40.83l-3,1.78L5,35.84Z" transform="translate(-4.5 -9.44)"/><path class="cls-1" d="M60.39,55.55H12.63c0-1.47,0-2.86,0-4.24a1.26,1.26,0,0,1,.67-.88A9.93,9.93,0,0,0,19,43.84C20.06,40,20.79,36,21.8,32a65.56,65.56,0,0,1,2.26-7.17,11.11,11.11,0,0,1,4.88-5.6,5.24,5.24,0,0,0,2.59-4.38c.27-3.08,2.17-5,5-5s4.7,1.83,5,4.93a5,5,0,0,0,2.35,4.22A13.85,13.85,0,0,1,50.18,28c1,4,1.77,8.1,2.71,12.13a30.82,30.82,0,0,0,1.43,4.52,10.22,10.22,0,0,0,5.23,5.75,1.47,1.47,0,0,1,.8.94C60.44,52.68,60.39,54.07,60.39,55.55ZM38.55,14.87a2,2,0,0,0-4.08,0,2,2,0,0,0,4.08,0Z" transform="translate(-4.5 -9.44)"/><path class="cls-1" d="M29.78,59.78H43.35a6.43,6.43,0,0,1-2.79,5.5,6.81,6.81,0,0,1-10.78-5.5Z" transform="translate(-4.5 -9.44)"/><path class="cls-1" d="M60.57,39.45l-2.63-1.6c2-4.21,1.09-7.75-2.66-10.72l1.51-2.55C61.31,26.52,64.14,34,60.57,39.45Z" transform="translate(-4.5 -9.44)"/><path class="cls-1" d="M15.16,37.81l-2.69,1.63c-3.26-5-1.39-12.5,3.71-14.9l1.31,2.11a41.34,41.34,0,0,0-3.14,5.23C13.55,33.81,14.05,35.83,15.16,37.81Z" transform="translate(-4.5 -9.44)"/></svg>