<svg id="config_icon" data-name="Layer 1" xmlns="http://www.w3.org/2000/svg" viewBox="0 0 49.47 49.42"><defs><style>.cls-1{fill:#f1f1f1;}</style></defs><title>config_icon</title><path class="cls-1" d="M24,16.75a19.24,19.24,0,0,1,2.48,1.68,1.82,1.82,0,0,0,2.58.28A5.21,5.21,0,0,1,31,17.89c1.32-.19,1.6-1,1.69-2.13A12.94,12.94,0,0,1,33,14.12a2,2,0,0,1,2.15-1.8c1.82,0,3.63,0,5.45,0a2.11,2.11,0,0,1,2.16,1.81,2.54,2.54,0,0,1,.18,1c-.23,1.82.91,2.3,2.32,3,2,1.06,3.52,1,5.14-.64a2.11,2.11,0,0,1,3.09.13c1.26,1.2,2.5,2.42,3.69,3.69a2.1,2.1,0,0,1,.1,3.18c-1.46,1.55-1.62,2.89-.69,4.94.8,1.76,1.66,2.46,3.47,2.55s2.44.77,2.52,2.6a48.66,48.66,0,0,1,0,5c-.08,1.48-.72,2.34-2.17,2.3-2.33,0-3.22,1.11-4,3.14-.62,1.61-.67,2.61.54,3.9,1.45,1.56,1.33,2.57-.13,4.12-1,1.12-2.16,2.2-3.29,3.24-1,.9-2.19,1.1-3.09.16-1.72-1.78-3.29-1.55-5.37-.6a3,3,0,0,0-2.13,2.83c-.21,2.6-.73,3-3.37,3-1.46,0-2.92,0-4.39,0-1.2,0-2.11-.67-2.1-1.81,0-2.63-1.32-3.8-3.7-4.55-1.24-.39-2.07-.59-3,.39a5.62,5.62,0,0,1-1.13.86,2.16,2.16,0,0,1-2.83-.14c-1.36-1.26-2.66-2.58-3.94-3.93a1.93,1.93,0,0,1-.11-2.88c1.86-1.72,1.64-3.35.64-5.44-.64-1.33-1.19-2.19-2.72-2.12a5.27,5.27,0,0,1-1.18-.13,2.29,2.29,0,0,1-1.92-2.33c0-1.7,0-3.4,0-5.1a2.18,2.18,0,0,1,2.16-2.45c2.25.07,3.2-1,4-3C20,27.37,20,26.3,18.73,25c-1.39-1.52-1.29-2.42.1-3.91,1.1-1.18,2.27-2.31,3.46-3.4A8.17,8.17,0,0,1,24,16.75Zm28,9.6,2.45-3.16L51.6,20.38c-.89.71-1.82,1.38-2.67,2.15-.58.53-1,.39-1.64.09-2-.9-4-1.7-6-2.45-.6-.23-1-.38-1.06-1.14-.08-1.2-.29-2.4-.44-3.63H35.86c-.16,1.27-.25,2.49-.49,3.68a1.66,1.66,0,0,1-.86,1c-2.08.92-4.18,1.8-6.3,2.62a1.65,1.65,0,0,1-1.31-.1c-1-.68-1.92-1.5-2.91-2.29l-2.76,2.91c.65.82,1.33,1.74,2.08,2.59a1.37,1.37,0,0,1,.15,1.78c-.91,1.95-1.75,3.94-2.47,6-.26.73-.57,1-1.29,1.07-1.16.09-2.32.25-3.48.38v4c1.21.12,2.4.17,3.55.4a1.76,1.76,0,0,1,1.13.88c.93,2.08,1.72,4.22,2.65,6.29A1.16,1.16,0,0,1,23.42,48c-.79.92-1.52,1.89-2,2.51l2.53,3.16c1.07-.85,2-1.63,2.94-2.29a1.66,1.66,0,0,1,1.31-.1c2.13.81,4.2,1.74,6.33,2.55.6.23.88.47.92,1.14.09,1.2.28,2.4.43,3.57h4c.15-1.3.23-2.48.47-3.64a1.67,1.67,0,0,1,.85-1c2.08-.92,4.21-1.72,6.28-2.65a1.15,1.15,0,0,1,1.46.17c.91.79,1.89,1.5,2.75,2.18l2.91-2.72-2.81-3.55c.61-1.12,1.27-2.16,1.75-3.28a20.56,20.56,0,0,0,1.18-3.58A1.28,1.28,0,0,1,56,39.36c3.69-.35,3.69-.36,3.49-4a1.74,1.74,0,0,0-.12-.34c-1.11-.11-2.29-.18-3.44-.38a1.65,1.65,0,0,1-1.12-.74C53.86,31.47,53,29,52,26.35Z" transform="translate(-13.13 -12.3)"/><path class="cls-1" d="M25.54,37c-.06-6.57,5.37-12.27,11.74-12.32A12.36,12.36,0,0,1,50.17,36.79a12.52,12.52,0,0,1-12,12.58A12.34,12.34,0,0,1,25.54,37Zm12.33-9.23a9.26,9.26,0,1,0,9.27,9.38A9.36,9.36,0,0,0,37.87,27.74Z" transform="translate(-13.13 -12.3)"/></svg>