<svg id="htg_icon" data-name="Layer 1" xmlns="http://www.w3.org/2000/svg" viewBox="0 0 161.5 77.25"><defs><style>.cls-1{fill:#ccc;}.cls-2{fill:none;stroke:#ccc;stroke-miterlimit:10;}</style></defs><title>HTG_icon_lt_2</title><path class="cls-1" d="M149,38.92a2.8,2.8,0,0,1,1.93.49c.49.49.47,1.59.46,2.87V60.65c0,1.27,0,2.37-.46,2.86A2.8,2.8,0,0,1,149,64H53.07a2.8,2.8,0,0,1-1.93-.49c-.48-.49-.47-1.59-.46-2.86,0-.21,0-.43,0-.65V42.92c0-.22,0-.43,0-.64,0-1.28,0-2.38.46-2.87a2.8,2.8,0,0,1,1.93-.49H149m0-1H53.07c-3.72,0-3.38,2.25-3.38,5V60c0,2.75-.34,5,3.38,5H149c3.73,0,3.39-2.25,3.39-5V42.92c0-2.75.34-5-3.39-5Z" transform="translate(-20.5 -12.25)"/><path class="cls-1" d="M68.87,45.13a2.39,2.39,0,1,1,0,4.77H60.41a2.39,2.39,0,1,1,0-4.77h8.46m0-1H60.41a3.39,3.39,0,1,0,0,6.77h8.46a3.39,3.39,0,1,0,0-6.77Z" transform="translate(-20.5 -12.25)"/><path class="cls-1" d="M70,51H59c-1.86,0-2-1.62-2-3.49h0c0-1.86.12-3.51,2-3.51H70c2,0,2.26,1.65,2.26,3.51h0C72.26,49.38,72,51,70,51Z" transform="translate(-20.5 -12.25)"/><path class="cls-1" d="M104.85,45.13c.49,0,1.39,0,1.39,2.38s-.9,2.39-1.39,2.39H94.39c-.48,0-1.39,0-1.39-2.39s.91-2.38,1.39-2.38h10.46m0-1H94.39c-1.86,0-2.39,1.52-2.39,3.38s.52,3.39,2.39,3.39h10.46c1.87,0,2.39-1.52,2.39-3.39s-.52-3.38-2.39-3.38Z" transform="translate(-20.5 -12.25)"/><path class="cls-1" d="M121.85,45.13c.49,0,1.39,0,1.39,2.38s-.9,2.39-1.39,2.39H111.39c-.48,0-1.39,0-1.39-2.39s.91-2.38,1.39-2.38h10.46m0-1H111.39c-1.86,0-2.39,1.52-2.39,3.38s.52,3.39,2.39,3.39h10.46c1.87,0,2.39-1.52,2.39-3.39s-.52-3.38-2.39-3.38Z" transform="translate(-20.5 -12.25)"/><path class="cls-1" d="M87.85,45.13c.49,0,1.39,0,1.39,2.38s-.9,2.39-1.39,2.39H77.39c-.48,0-1.39,0-1.39-2.39s.91-2.38,1.39-2.38H87.85m0-1H77.39c-1.86,0-2.39,1.52-2.39,3.38s.52,3.39,2.39,3.39H87.85c1.87,0,2.39-1.52,2.39-3.39s-.52-3.38-2.39-3.38Z" transform="translate(-20.5 -12.25)"/><path class="cls-1" d="M147.45,42.37a.76.76,0,0,1,.19,0h0a2.29,2.29,0,0,1,0,.67c0,.16,0,.33,0,.51s0,.34,0,.5a2.69,2.69,0,0,1,0,.66.44.44,0,0,1-.2,0h-15a.76.76,0,0,1-.19,0h0a2.29,2.29,0,0,1,0-.67c0-.16,0-.33,0-.5s0-.35,0-.51a2.69,2.69,0,0,1,0-.66.44.44,0,0,1,.2,0h15m0-.5h-15c-.94,0-.7.76-.7,1.7s-.24,1.69.7,1.69h15c.93,0,.7-.76.7-1.69s.23-1.7-.7-1.7Z" transform="translate(-20.5 -12.25)"/><path class="cls-1" d="M147.45,47.83a.76.76,0,0,1,.19,0h0a2.25,2.25,0,0,1,0,.67c0,.16,0,.33,0,.5s0,.34,0,.5a2.78,2.78,0,0,1,0,.67.63.63,0,0,1-.2,0h-15a.76.76,0,0,1-.19,0h0a2.25,2.25,0,0,1,0-.67c0-.16,0-.33,0-.5s0-.34,0-.5a2.78,2.78,0,0,1,0-.67.63.63,0,0,1,.2,0h15m0-.5h-15c-.94,0-.7.76-.7,1.69s-.24,1.69.7,1.69h15c.93,0,.7-.76.7-1.69s.23-1.69-.7-1.69Z" transform="translate(-20.5 -12.25)"/><path class="cls-1" d="M147.45,53.28a.76.76,0,0,1,.19,0h0a2.29,2.29,0,0,1,0,.67c0,.16,0,.33,0,.5s0,.35,0,.51a2.69,2.69,0,0,1,0,.66.44.44,0,0,1-.2,0h-15a.76.76,0,0,1-.19,0h0a2.29,2.29,0,0,1,0-.67c0-.16,0-.33,0-.51s0-.34,0-.5a2.69,2.69,0,0,1,0-.66.44.44,0,0,1,.2,0h15m0-.5h-15c-.94,0-.7.76-.7,1.69s-.24,1.7.7,1.7h15c.93,0,.7-.77.7-1.7s.23-1.69-.7-1.69Z" transform="translate(-20.5 -12.25)"/><path class="cls-1" d="M147.45,58.74h.19a2.34,2.34,0,0,1,0,.68c0,.15,0,.32,0,.5s0,.34,0,.5a2.67,2.67,0,0,1,0,.66.44.44,0,0,1-.2,0h-15a.76.76,0,0,1-.19,0h0a2.27,2.27,0,0,1,0-.67c0-.16,0-.33,0-.5s0-.35,0-.5a2.78,2.78,0,0,1,0-.67.63.63,0,0,1,.2,0h15m0-.5h-15c-.94,0-.7.76-.7,1.69s-.24,1.69.7,1.69h15c.93,0,.7-.76.7-1.69s.23-1.69-.7-1.69Z" transform="translate(-20.5 -12.25)"/><line class="cls-2" x1="57.68" y1="25.39" x2="57.68" y2="7.9"/><line class="cls-2" x1="105.64" y1="25.39" x2="105.64" y2="7.9"/><line class="cls-2" x1="104.51" y1="69.35" x2="104.51" y2="51.86"/><line class="cls-2" x1="55.99" y1="69.35" x2="55.99" y2="51.86"/><line class="cls-2" x1="29.47" y1="40.62" x2="7.46" y2="40.62"/><line class="cls-2" x1="153.6" y1="40.62" x2="131.6" y2="40.62"/><path class="cls-1" d="M78.18,13.25a2.95,2.95,0,1,1-3,2.95,2.95,2.95,0,0,1,3-2.95m0-1a3.95,3.95,0,1,0,3.95,3.95,4,4,0,0,0-3.95-3.95Z" transform="translate(-20.5 -12.25)"/><path class="cls-1" d="M126.14,13.25a2.95,2.95,0,1,1-3,2.95,2.95,2.95,0,0,1,3-2.95m0-1a3.95,3.95,0,1,0,4,3.95,4,4,0,0,0-4-3.95Z" transform="translate(-20.5 -12.25)"/><path class="cls-1" d="M77.05,82.6a3,3,0,1,1-3,3,2.95,2.95,0,0,1,3-3m0-1a4,4,0,1,0,4,4,4,4,0,0,0-4-4Z" transform="translate(-20.5 -12.25)"/><path class="cls-1" d="M125,82.6a3,3,0,1,1-3,3,2.95,2.95,0,0,1,3-3m0-1a4,4,0,1,0,4,4,4,4,0,0,0-4-4Z" transform="translate(-20.5 -12.25)"/><path class="cls-1" d="M178.05,49.93a2.95,2.95,0,1,1-3,3,2.95,2.95,0,0,1,3-3m0-1a3.95,3.95,0,1,0,3.95,4,3.95,3.95,0,0,0-3.95-4Z" transform="translate(-20.5 -12.25)"/><path class="cls-1" d="M24.45,49.93a2.95,2.95,0,1,1-2.95,3,2.95,2.95,0,0,1,2.95-3m0-1a3.95,3.95,0,1,0,3.95,4,3.95,3.95,0,0,0-3.95-4Z" transform="translate(-20.5 -12.25)"/><path class="cls-2" d="M37.56,32.56" transform="translate(-20.5 -12.25)"/><path class="cls-2" d="M50,39.33" transform="translate(-20.5 -12.25)"/><path class="cls-2" d="M152.1,39.9" transform="translate(-20.5 -12.25)"/></svg>