<svg id="joint_hub_icon" xmlns="http://www.w3.org/2000/svg" viewBox="0 0 357 357"><defs><style>.cls-1{fill:#383838;}.cls-2{fill:#edefef;}</style></defs><title>joint_hub_icon_2</title><circle class="cls-1" cx="178.5" cy="178.5" r="178.5"/><rect class="cls-2" x="178.13" y="89.75" width="7.1" height="172.38"/><rect class="cls-2" x="190.09" y="110.72" width="7.23" height="169.14" transform="translate(-15.5 369.87) rotate(-90)"/><polygon class="cls-2" points="242.58 234.78 237.56 239.89 117.97 118 122.98 112.89 242.58 234.78"/><polygon class="cls-2" points="237.56 111.68 242.58 116.8 122.98 238.69 117.97 233.57 237.56 111.68"/><ellipse class="cls-1" cx="179.44" cy="175.98" rx="29.57" ry="30.14"/><ellipse class="cls-2" cx="180.87" cy="83.57" rx="14.78" ry="15.07"/><ellipse class="cls-2" cx="181.46" cy="273.43" rx="14.78" ry="15.07"/><ellipse class="cls-2" cx="83.28" cy="175.79" rx="14.78" ry="15.07"/><ellipse class="cls-2" cx="273.72" cy="175.79" rx="14.78" ry="15.07"/><ellipse class="cls-2" cx="112.85" cy="108.28" rx="14.78" ry="15.07"/><ellipse class="cls-2" cx="246.51" cy="108.28" rx="14.78" ry="15.07"/><ellipse class="cls-2" cx="112.85" cy="243.29" rx="14.78" ry="15.07"/><ellipse class="cls-2" cx="246.51" cy="246.91" rx="14.78" ry="15.07"/><ellipse class="cls-2" cx="179.44" cy="175.98" rx="23.66" ry="24.11"/></svg>