<svg id="key_loader_icon" xmlns="http://www.w3.org/2000/svg" viewBox="0 0 357 357"><defs><style>.cls-1{fill:#383838;}.cls-2,.cls-3,.cls-4,.cls-6{fill:none;stroke:#ccc;stroke-miterlimit:10;}.cls-3{stroke-width:0.75px;}.cls-4{stroke-width:0.5px;}.cls-5{fill:#ccc;}.cls-6{stroke-width:0.25px;}</style></defs><title>key_loader_icon_3</title><circle class="cls-1" cx="178.5" cy="178.5" r="178.5"/><path class="cls-2" d="M253.5,290.5h-18v-1l-.13-22.69,20.13.19-.31-7.35a15.88,15.88,0,0,0-7.69-9.15c-5.73-2.86-13-2-13-2V185h8V161.25l-8-.25V117q0-2.25-3-3c-2-.5-14-.5-13.8-.06s-4.24,5-6.35,5c0,0-61.58,0-62.69,0-1.39,0-4.78-5.34-6.17-5.35l-10-.06c-.5,1.63-.91,3.88-1.87,6.38A11.93,11.93,0,0,0,129.5,124c0,12-1,25.5-.77,36.83,0,.41-7.23-.27-7.23.67v23.81c0,.17,8-.18,8,0v63.94c0,.5-6,.25-6,.42V302a12.28,12.28,0,0,0,3.51,8.49A12,12,0,0,0,135.5,314h93c4.62,0,7.47.35,8-3.5h10v-1c4.4,0,8-5,8-11C254.5,294.5,254.5,290.5,253.5,290.5Z" transform="translate(-14 -19)"/><rect class="cls-3" x="223.5" y="250" width="18" height="20"/><path class="cls-4" d="M197.88,275.75s-6.38.5-8.25-1.25-1-7.75-1-7.75a7,7,0,0,0-14,0s.87,5.75-1.13,7.75-8.12,1.25-8.12,1.25a7,7,0,0,0,0,14s7.12-.25,8.25,2c1.87,1.75,1,7,1,7a7,7,0,0,0,14,0s-.23-5.89.87-7.25c1.49-1.84,8.38-1.75,8.38-1.75a7,7,0,0,0,0-14Z" transform="translate(-14 -19)"/><path class="cls-2" d="M165.38,289.75" transform="translate(-14 -19)"/><circle class="cls-4" cx="167.65" cy="248.81" r="4.5"/><circle class="cls-2" cx="167.5" cy="263.75" r="4.5"/><circle class="cls-4" cx="167.65" cy="279.31" r="4.5"/><circle class="cls-4" cx="151.5" cy="264" r="4.5"/><circle class="cls-4" cx="147" cy="248" r="4.5"/><circle class="cls-4" cx="125" cy="248" r="4.5"/><circle class="cls-3" cx="183.5" cy="264" r="4.5"/><circle class="cls-4" cx="210" cy="248" r="4.5"/><circle class="cls-4" cx="189" cy="248" r="4.5"/><polygon class="cls-5" points="164.85 278.51 167.62 278.56 170.44 278.51 167.68 282.1 164.85 278.51"/><polygon class="cls-5" points="164.85 249.6 167.62 249.55 170.44 249.6 167.68 246.01 164.85 249.6"/><polygon class="cls-5" points="182.33 266.8 182.3 264.03 182.33 261.2 185.84 264.07 182.33 266.8"/><polygon class="cls-5" points="152.81 266.8 152.84 264.03 152.81 261.2 149.3 264.07 152.81 266.8"/><circle class="cls-5" cx="167.5" cy="263.75" r="2.5"/><circle class="cls-4" cx="152" cy="280" r="4.5"/><circle class="cls-4" cx="183" cy="280" r="4.5"/><path class="cls-4" d="M127,120h78a9,9,0,0,1,9,9v97a9,9,0,0,1-9,9H129a8,8,0,0,1-8-8V126A6,6,0,0,1,127,120Z"/><rect class="cls-4" x="131.5" y="130.5" width="72" height="93"/><circle class="cls-5" cx="126.5" cy="125.5" r="3"/><circle class="cls-5" cx="168" cy="125.5" r="3"/><circle class="cls-5" cx="208.75" cy="125.5" r="3"/><circle class="cls-5" cx="126.5" cy="229.5" r="3"/><circle class="cls-5" cx="168" cy="229.5" r="3"/><circle class="cls-5" cx="208.75" cy="229.5" r="3"/><circle class="cls-5" cx="126.5" cy="157" r="3"/><circle class="cls-5" cx="126.5" cy="194" r="3"/><circle class="cls-5" cx="208.75" cy="156" r="3"/><circle class="cls-5" cx="208.75" cy="193" r="3"/><rect class="cls-5" x="137" y="142" width="12" height="12"/><rect class="cls-5" x="153" y="142" width="12" height="12"/><rect class="cls-5" x="169" y="142" width="12" height="12"/><rect class="cls-5" x="186" y="142" width="12" height="12"/><rect class="cls-5" x="137" y="166" width="12" height="12"/><rect class="cls-5" x="153" y="166" width="12" height="12"/><rect class="cls-5" x="169" y="166" width="12" height="12"/><rect class="cls-5" x="186" y="166" width="12" height="12"/><rect class="cls-5" x="137" y="189" width="12" height="12"/><rect class="cls-5" x="153" y="189" width="12" height="12"/><rect class="cls-5" x="169" y="189" width="12" height="12"/><path class="cls-2" d="M132.5,113.5c-2,6-3,8-3,10.5" transform="translate(-14 -19)"/><path class="cls-4" d="M128,237c-.5,1.5-1.33,4-2,4s-1.5-2.5-2-4V187h4Z" transform="translate(-14 -19)"/><rect class="cls-4" x="109.5" y="121" width="4" height="20"/><path class="cls-4" d="M128,138.5h-5.5c-.83-.83-.17-2.17-1-3-.5-.5-2.5-.5-3-1v-26h10l1,6H131l-2.5,8Z" transform="translate(-14 -19)"/><line class="cls-4" x1="109" y1="230" x2="109" y2="168"/><path class="cls-4" d="M240.25,241c-.5,1.5-1.33,4-2,4s-1.5-2.5-2-4V187h4Z" transform="translate(-14 -19)"/><rect class="cls-4" x="222.25" y="131" width="4" height="10"/><line class="cls-4" x1="134" y1="295" x2="140" y2="289"/><line class="cls-4" x1="200" y1="295" x2="195" y2="289"/><line class="cls-4" x1="139.75" y1="289" x2="195.13" y2="289"/><polygon class="cls-4" points="222.5 129.5 226.5 129.5 227.5 126.5 230.5 124.5 230.5 116.5 228.5 114.5 228.5 111.5 230.5 109.5 230.5 100.5 229.5 98.5 226.5 98.5 226.5 95.5 224.5 95.5 224.5 98.5 222.5 98.5 221.5 97.5 221.5 129.5 222.5 129.5"/><line class="cls-4" x1="129.5" y1="94.5" x2="203.5" y2="94.5"/><rect class="cls-4" x="138.5" y="94.5" width="5" height="5"/><rect class="cls-4" x="164.5" y="94.5" width="5" height="5"/><rect class="cls-4" x="193.5" y="94.5" width="4" height="5"/><polygon class="cls-4" points="115.5 92.5 120.5 92.5 120.5 91.5 128.5 91.5 128.5 86.5 126.5 86.5 126.5 79.5 128.5 79.5 128.5 76.5 134.5 76.5 134.5 78.5 135.5 78.5 135.5 86.5 140.5 86.5 140.5 91.5 142.5 91.5 142.5 87.5 148.5 87.5 148.5 91.5 151.5 91.5 151.5 90.5 154.5 90.5 154.5 82.5 203.5 82.5 203.5 79.5 208.5 79.5 208.5 81.5 211.5 81.5 211.5 93.5 115.5 93.5 115.5 92.5"/><line class="cls-4" x1="180.5" y1="82.5" x2="180.5" y2="93.5"/><line class="cls-4" x1="200.5" y1="82.5" x2="200.5" y2="93.5"/><line class="cls-4" x1="175.5" y1="82.5" x2="175.5" y2="79.5"/><line class="cls-4" x1="200.5" y1="82.5" x2="200.5" y2="79.5"/><line class="cls-4" x1="175.5" y1="79.5" x2="200.5" y2="79.5"/><line class="cls-4" x1="177.5" y1="78.5" x2="198.5" y2="78.5"/><line class="cls-4" x1="175.5" y1="79.5" x2="177.5" y2="78.5"/><line class="cls-4" x1="198.5" y1="78.5" x2="200.5" y2="79.5"/><rect class="cls-4" x="178" y="72.75" width="20" height="5"/><rect class="cls-4" x="161" y="77.75" width="9" height="4"/><polygon class="cls-4" points="174.5 54.63 174.5 54.5 150.5 54.5 150.5 57.5 151 57.5 151 76 151.5 76 151.5 76.5 159 76.5 159 77 172 77 172 71 159 71 159 73.5 154 73.5 154 57.5 174 57.5 174 72.38 202 72.38 202 54.63 174.5 54.63"/><rect class="cls-4" x="161" y="67.5" width="9" height="3"/><polygon class="cls-6" points="229.5 122.5 227.5 124.5 227.5 116.5 229.5 118.5 229.5 122.5"/><circle class="cls-4" cx="210.63" cy="113.88" r="5.5"/><circle class="cls-4" cx="210.63" cy="113.88" r="3.5"/></svg>