<svg id="key_manager_icon" data-name="Layer 1" xmlns="http://www.w3.org/2000/svg" viewBox="0 0 357 357"><defs><style>.cls-1{fill:#383838;}.cls-2{fill:#edefef;}</style></defs><title>key_management_icon_2</title><circle class="cls-1" cx="178.5" cy="178.5" r="178.5"/><path class="cls-2" d="M197.79,260c-3.59,0-3.12-8.38-3-15.7.29-13.25.09-26.5.09-39.75,0-12.63,11.3-19.05,25.08-26.25a52.38,52.38,0,0,1,11.13-4.48c3.11-.66,2.18-.55,3.21,2.33,5.6,15.69,12.23,33.09,18,48.71,1.33,2.89,2.76,5.65,4.43,5.7,1.91.06,3.82-3.42,4.7-5.81,5.8-15.61,11.66-32.2,17.28-47.88,1-2.7,1.43-2.87,1.43-2.87a94.92,94.92,0,0,1,15.05,5c12.9,5.73,23.65,10,23.54,20.51.36,14.79.18,33.19.06,48,0,6.15.77,12.48-2.1,12.48Z" transform="translate(-23 -21)"/><path class="cls-2" d="M260.85,98c7.45,1.66,14.33,4.45,19.47,10.4,8.24,9.53,10.73,20.38,6.33,32.26-4.32,11.67-12.91,18.58-25.29,20.49a31.46,31.46,0,0,1-35.63-25.61c-2.91-18.14,8.61-34.68,26-37A5.17,5.17,0,0,0,253,98Z" transform="translate(-23 -21)"/><path class="cls-2" d="M260.77,179.73l-6.58,0S249.68,174,250,173c.41-1.46,3.86-6.69,3.86-6.69l7.31-.17s4.45,5.31,4.36,6.42S260.77,179.73,260.77,179.73Z" transform="translate(-23 -21)"/><path class="cls-2" d="M263.72,209.83c-.72,2.15-6.45,8.6-6.45,8.6s-5-5.73-5.73-7.88c.71-9.32,2.15-18.63,3.58-28h5Z" transform="translate(-23 -21)"/><path class="cls-2" d="M154,98a40,40,0,0,0-28.49,68l-56.3,97.5A11.43,11.43,0,0,0,74,269.33c2.67,1.54,5.87,2.74,9.21,2.2L90,259.69l15.33,8.85c1.49-1.05,2.24-2.68,3.1-4.16.67-1.17,1.6-3.11,1.48-3.77l-11.17-6.45q1.91-3.24,3.79-6.48l8.85,5.11c1.49-1,2.25-2.67,3.1-4.15.68-1.17,1.61-3.11,1.48-3.78l-13-7.53,36-62.36A40,40,0,1,0,154,98Zm0,59.94a20,20,0,1,1,20-20A20,20,0,0,1,154,157.94Z" transform="translate(-23 -21)"/></svg>