<svg id="user_login_icon" data-name="Layer 1" xmlns="http://www.w3.org/2000/svg" viewBox="0 0 213.37 183.12"><defs><style>.cls-1{fill:none;stroke:#f1f1f1;stroke-miterlimit:10;stroke-width:3px;}</style></defs><title>logged_in_outline_2</title><path class="cls-1" d="M215.83,207.83C199,231,200,254.14,217,278.59c-20,0-38.78.45-57.51-.12-18-.56-35.86-2.45-53.23-7.65-10.37-3.1-10.72-3.09-9.17-13.45,2.9-19.42,11.35-35,30.79-42.65,6.66-2.62,13.24-5.45,19.75-8.42,3-1.38,4.81-1,7.13,1.67,14.84,17.24,35.89,17.62,51,.68C209.47,204.58,212.09,205.18,215.83,207.83Z" transform="translate(-94.93 -108.99)"/><path class="cls-1" d="M216.81,150.25c.83,2.56.21,9.25,1.69,9.5,3.7,2.75-1.48,26.5-4.94,26.29-1.77,2.54-3,5.47-4.71,8-3.42,5-6.24,10.87-10.71,14.76-15,13.09-36,6.87-45-12.62a91.32,91.32,0,0,0-6.76-12c-4-6.16-7.86-14.68-5.17-21.1,2.26-1.87,2-16.37,3.52-25,2.67-14.84,11.67-23.52,26.16-26.56,11.11-2.32,21.85-1,31.78,4.8,1.83,1.06,4,2.47,4.74,4.24C211.13,129.83,218.73,137.71,216.81,150.25Z" transform="translate(-94.93 -108.99)"/><path class="cls-1" d="M210.18,242.82c-.39-25.88,21-48.36,46.34-48.74,27.65-.41,49.94,20.61,50.28,47.4s-20.92,48.43-48.2,49.11C232.88,291.23,210.59,269.24,210.18,242.82Zm71.75,4.1a18.28,18.28,0,0,1,2.81-.37c3.24.12,5.9-1,5.89-4.51,0-4-3.16-4.42-6.43-4.38-6.15.09-12.32-.08-18.47.08-3.21.08-5.21-.37-6.92-3.86a16.75,16.75,0,0,0-21.23-8.09,17.06,17.06,0,0,0-10.9,19.53c1.55,7.33,7.16,12.9,13.93,13.84,8.21,1.13,14.42-2.19,18.76-9.38.94-1.57,3.3-2.75,5.21-3.16,2.51-.53,5.22-.13,8.3-.13,0,3.19.18,10.53.18,13,0,.78,2.6.43,4.21.43s4.27-.06,4.29-.43C281.72,257,281.93,249.7,281.93,246.92Z" transform="translate(-94.93 -108.99)"/><path class="cls-1" d="M243.73,233.81a7.89,7.89,0,0,1,8.17,8.59,8.37,8.37,0,0,1-8.34,8.18c-4.38,0-8.52-4.34-8.35-8.83A8.21,8.21,0,0,1,243.73,233.81Z" transform="translate(-94.93 -108.99)"/><path class="cls-1" d="M146.41,184.22c-4.16,1.28-8.41-19.22-5.17-21.1,2.26-1.87,2-16.37,3.52-25" transform="translate(-94.93 -108.99)"/></svg>