<svg id="mms_icon" xmlns="http://www.w3.org/2000/svg" viewBox="0 0 357 357"><defs><style>.cls-1{fill:#383838;}.cls-2{fill:#ccc;}</style></defs><title>mms_icon_2</title><circle class="cls-1" cx="178.5" cy="178.5" r="178.5"/><path class="cls-2" d="M277.46,139.65V126.4a12,12,0,0,0-12-12H249v15H237v-15h-10.7v15h-12v-15h-10.7v15h-12v-15h-10.7v15h-12v-15h-10.7v15h-12v-15h-10.7v15h-12v-15h-14a12,12,0,0,0-12,12v13.25h15.75v12H97.46v10.7h15.75v12H97.46v10.7h15.75v12H97.46v10.7h15.75v12H97.46v10.7h15.75v12H97.46v10.7h15.75v12H97.46V282.4a12,12,0,0,0,12,12h14v-16h12v16h10.7v-16h12v16h10.7v-16h12v16h10.7v-16h12v16h10.7v-16h12v16H237v-16h12v16h16.5a12,12,0,0,0,12-12V265.15H260.21v-12h17.25v-10.7H260.21v-12h17.25v-10.7H260.21v-12h17.25v-10.7H260.21v-12h17.25v-10.7H260.21v-12h17.25v-10.7H260.21v-12ZM165.77,218.08h-7V188.64l-7.42,29.44h-7.27l-7.4-29.44v29.44h-7v-37.4H141l6.78,25.51,6.71-25.51h11.33Zm43.52,0h-7V188.64l-7.42,29.44h-7.27l-7.4-29.44v29.44h-7v-37.4h11.3l6.78,25.51L198,180.68h11.33Zm34.21-4.88a10.68,10.68,0,0,1-5.05,4.17,21.19,21.19,0,0,1-8.14,1.37q-7.09,0-10.89-3.28t-4.54-9.55l7.34-.72a8.93,8.93,0,0,0,2.7,5.44,8.15,8.15,0,0,0,5.47,1.73,8.38,8.38,0,0,0,5.49-1.54,4.57,4.57,0,0,0,1.85-3.61A3.46,3.46,0,0,0,237,205a6.27,6.27,0,0,0-2.72-1.62c-.89-.3-2.9-.85-6.05-1.63-4.05-1-6.88-2.24-8.52-3.7a9.76,9.76,0,0,1-3.44-7.53,9.62,9.62,0,0,1,1.62-5.34,10.12,10.12,0,0,1,4.67-3.79,18.64,18.64,0,0,1,7.36-1.3q7,0,10.6,3.09a10.9,10.9,0,0,1,3.73,8.24l-7.55.33a6.4,6.4,0,0,0-2.08-4.15,7.6,7.6,0,0,0-4.78-1.26,8.63,8.63,0,0,0-5.15,1.35,2.72,2.72,0,0,0-1.2,2.32,2.84,2.84,0,0,0,1.12,2.27c1,.8,3.27,1.64,6.94,2.5a36.58,36.58,0,0,1,8.15,2.7,10.39,10.39,0,0,1,4.13,3.8,11.72,11.72,0,0,1-.29,12Z" transform="translate(-14 -19)"/></svg>