<svg id="network_connection_icon" data-name="Layer 1" xmlns="http://www.w3.org/2000/svg" viewBox="0 0 91 85.44"><defs><style>.cls-1{fill:#dbdbdb;}.cls-2,.cls-3{fill:none;stroke:#dbdbdb;stroke-miterlimit:10;}.cls-2{stroke-width:2px;}.cls-3{stroke-width:4px;}</style></defs><title>networkConnectIcon</title><path class="cls-1" d="M50.5,14.56A21.6,21.6,0,1,1,28.91,36.15,21.61,21.61,0,0,1,50.5,14.56m0-4A25.6,25.6,0,1,0,76.09,36.15,25.59,25.59,0,0,0,50.5,10.56Z" transform="translate(-6 -10.56)"/><line class="cls-2" x1="44.64" x2="44.64" y2="51.19"/><path class="cls-2" d="M58.6,14s8,4.74,8,22.36c0,19-8,22.64-8,22.64" transform="translate(-6 -10.56)"/><path class="cls-2" d="M43,59s-8-4.85-8-22.86C35,16.74,43,13,43,13" transform="translate(-6 -10.56)"/><line class="cls-3" x1="18.91" y1="25.59" x2="70.09" y2="25.59"/><line class="cls-3" x1="24" y1="13.44" x2="65" y2="13.44"/><line class="cls-3" x1="25" y1="37.44" x2="64" y2="37.44"/><line class="cls-3" x1="44.5" y1="69.67" x2="44.5" y2="51.19"/><line class="cls-3" x1="17.91" y1="60" x2="71.94" y2="59.15"/><line class="cls-3" x1="12.8" y1="69.67" x2="12.8" y2="63.7"/><line class="cls-3" x1="78.63" y1="69.39" x2="78.63" y2="63.42"/><path class="cls-3" d="M18.8,74.26c0-2,2.67-3.7,6-3.7" transform="translate(-6 -10.56)"/><path class="cls-3" d="M84.62,74c0-2.36-3.05-4.27-6.82-4.27" transform="translate(-6 -10.56)"/><rect class="cls-2" x="34" y="69.44" width="23" height="15"/><rect class="cls-2" x="67" y="69.44" width="23" height="15"/><rect class="cls-2" x="1" y="69.44" width="23" height="15"/></svg>