<svg id="warning_icon" data-name="Layer 1" xmlns="http://www.w3.org/2000/svg" viewBox="0 0 68.15 60.08"><defs><style>.cls-1{fill:none;stroke:#c5c5c5;stroke-miterlimit:10;}</style></defs><title>warningIcon</title><path class="cls-1" d="M45.6,71.69q-15,0-30,0c-3.13,0-4.3-2-2.71-4.8q15-26,30.06-52c1.73-3,4-2.95,5.7.08q15,25.93,29.93,51.9c1.65,2.85.51,4.87-2.76,4.87H45.6ZM21.4,65.14H70.09L45.74,23Z" transform="translate(-11.66 -12.13)"/><path class="cls-1" d="M48.89,39.6c-.22,3-.49,6.77-.78,10.49,0,.53-.22,1-.31,1.58a1.89,1.89,0,0,1-2.1,1.77,1.79,1.79,0,0,1-2-1.68c-.24-1.48-.47-3-.59-4.46-.28-3.6-.51-7.2-.72-10.8a6.19,6.19,0,0,1,.22-2,2.92,2.92,0,0,1,3.24-2.26,2.74,2.74,0,0,1,3,2.35A37.83,37.83,0,0,1,48.89,39.6Z" transform="translate(-11.66 -12.13)"/><path class="cls-1" d="M45.76,62.76a3.35,3.35,0,1,1,3.4-3.27A3.44,3.44,0,0,1,45.76,62.76Z" transform="translate(-11.66 -12.13)"/></svg>