<svg id="Layer_1" data-name="Layer 1" xmlns="http://www.w3.org/2000/svg" viewBox="0 0 113.4 103.05"><defs><style>.cls-1,.cls-2{fill:none;stroke:#00c853;stroke-miterlimit:10;}.cls-2{stroke-width:2px;}</style></defs><title>alarm_normal</title><g id="alarm_normal" data-name="alarm normal"><path class="cls-1" d="M256.35,195.64l-3.83,11.49-5.3-3c6.14-13.36,3.46-24.43-8.26-33.26l2.4-4.07a6.07,6.07,0,0,1,.64-.8,29.44,29.44,0,0,1,13.4,18.1c.32,1.18.64,2.37,1,3.55Z" transform="translate(-143.5 -147.96)"/><path class="cls-1" d="M144,188.15c1.2-5.1,2.43-10.23,5.93-14.32,2.45-2.86,5.27-5.41,8.26-8.45l3.29,5.44c-11.23,7.63-14.67,20.68-8.26,33.21l-5.38,3.18L144,195.14Z" transform="translate(-143.5 -147.96)"/><path class="cls-2" d="M242.78,230.29H157.6c0-2.63-.07-5.1.06-7.57a2.31,2.31,0,0,1,1.19-1.58,17.6,17.6,0,0,0,10.06-11.75c2-6.93,3.26-14,5.06-21a112.25,112.25,0,0,1,4-12.8,19.9,19.9,0,0,1,8.69-10,9.31,9.31,0,0,0,4.63-7.79c.48-5.5,3.86-8.83,8.86-8.84s8.38,3.26,8.92,8.8c.31,3.16,1.35,5.84,4.19,7.51,6.12,3.61,9.56,9.22,11.28,15.84,1.86,7.14,3.16,14.43,4.84,21.63a58,58,0,0,0,2.54,8.06,18.26,18.26,0,0,0,9.37,10.2,2.62,2.62,0,0,1,1.43,1.66C242.88,225.17,242.78,227.65,242.78,230.29Z" transform="translate(-143.5 -147.96)"/><path class="cls-2" d="M188.2,237.83h24.19a11.43,11.43,0,0,1-5,9.8,11.67,11.67,0,0,1-12.73.9C190.53,246.43,188.44,242.81,188.2,237.83Z" transform="translate(-143.5 -147.96)"/><path class="cls-1" d="M243.11,201.57l-4.69-2.85c3.59-7.52,1.94-13.82-4.75-19.13l2.68-4.54C244.43,178.51,249.48,191.84,243.11,201.57Z" transform="translate(-143.5 -147.96)"/><path class="cls-1" d="M162.12,198.64l-4.8,2.9c-5.82-8.84-2.47-22.28,6.62-26.57l2.33,3.77c-2,3.35-4.27,6.16-5.59,9.34C159.24,191.52,160.14,195.11,162.12,198.64Z" transform="translate(-143.5 -147.96)"/></g></svg>