<svg id="config_enabled" xmlns="http://www.w3.org/2000/svg" viewBox="0 0 82.52 82.47"><defs><style>.cls-1,.cls-2{fill:none;stroke-miterlimit:10;}.cls-1{stroke:#f1f1f1;stroke-width:2px;}.cls-2{stroke:#ccc;stroke-width:4px;}</style></defs><title>config_enabled_svg</title><g id="config_enabled-2" data-name="config enabled"><path class="cls-1" d="M156.87,167a31.17,31.17,0,0,1,4,2.75c1.39,1.28,2.59,1.52,4.2.46a8.22,8.22,0,0,1,3.18-1.34c2.13-.31,2.59-1.69,2.74-3.47a21.72,21.72,0,0,1,.38-2.67,3.35,3.35,0,0,1,3.5-2.95h8.88c2,0,3,1.16,3.52,2.94a4.57,4.57,0,0,1,.3,1.71c-.39,3,1.47,3.74,3.77,4.92,3.33,1.72,5.74,1.63,8.38-1,1.48-1.5,3.5-1.22,5,.22,2.06,2,4.07,3.94,6,6,1.57,1.68,1.76,3.47.15,5.18-2.37,2.54-2.62,4.72-1.1,8.06,1.3,2.87,2.69,4,5.64,4.15s4,1.26,4.12,4.24c.12,2.7.1,5.41,0,8.11-.13,2.42-1.19,3.81-3.54,3.75-3.8-.08-5.25,1.81-6.52,5.12-1,2.62-1.08,4.25.88,6.35,2.37,2.55,2.17,4.19-.2,6.71-1.72,1.82-3.52,3.58-5.37,5.27-1.6,1.47-3.56,1.8-5,.27-2.8-2.91-5.36-2.53-8.75-1-2.35,1.08-3.27,2.13-3.47,4.61-.34,4.23-1.2,4.85-5.5,4.91h-7.14c-2,0-3.44-1.09-3.43-3,0-4.28-2.15-6.19-6-7.41-2-.64-3.38-1-4.87.64a9.31,9.31,0,0,1-1.84,1.4,3.54,3.54,0,0,1-4.62-.23c-2.21-2.06-4.33-4.21-6.41-6.4-1.39-1.46-1.6-3.4-.18-4.7,3-2.79,2.67-5.45,1-8.86-1-2.16-1.93-3.56-4.43-3.45a7.73,7.73,0,0,1-1.91-.22,3.74,3.74,0,0,1-3.14-3.79v-8.3c0-2.26,1.31-4.06,3.52-4,3.67.11,5.2-1.65,6.52-4.9,1.12-2.75,1.09-4.5-.91-6.69-2.28-2.48-2.1-3.94.16-6.37,1.79-1.93,3.69-3.77,5.64-5.54A13.34,13.34,0,0,1,156.87,167Zm45.55,15.65,4-5.15-4.63-4.57c-1.44,1.15-3,2.24-4.34,3.49-1,.87-1.62.64-2.68.15-3.19-1.47-6.47-2.76-9.76-4-1-.37-1.65-.62-1.73-1.85-.12-2-.46-3.9-.71-5.91h-6.41c-.26,2.07-.41,4.06-.81,6a2.64,2.64,0,0,1-1.4,1.63q-5.07,2.26-10.26,4.26a2.64,2.64,0,0,1-2.13-.16c-1.64-1.11-3.13-2.43-4.75-3.73l-4.5,4.75c1.06,1.34,2.17,2.84,3.4,4.23.87,1,.79,1.72.25,2.88a98.28,98.28,0,0,0-4,9.75,2.12,2.12,0,0,1-2.11,1.75c-1.89.14-3.78.4-5.66.61v6.5c2,.2,3.9.29,5.77.65a2.92,2.92,0,0,1,1.85,1.44c1.51,3.38,2.8,6.87,4.31,10.25a1.88,1.88,0,0,1-.21,2.38c-1.29,1.49-2.47,3.08-3.27,4.09l4.11,5.15c1.75-1.39,3.21-2.66,4.81-3.73a2.73,2.73,0,0,1,2.13-.18c3.46,1.33,6.84,2.84,10.3,4.16,1,.37,1.44.77,1.51,1.85.14,2,.46,3.92.69,5.82h6.46c.25-2.1.38-4,.76-5.93a2.71,2.71,0,0,1,1.39-1.63c3.38-1.5,6.86-2.81,10.24-4.33a1.87,1.87,0,0,1,2.37.27c1.49,1.29,3.08,2.46,4.48,3.56l4.74-4.43L202,216.89c1-1.83,2.08-3.52,2.86-5.34a34.41,34.41,0,0,0,1.92-5.84,2.07,2.07,0,0,1,2.19-1.85c6-.57,6-.6,5.7-6.57a2.83,2.83,0,0,0-.21-.55c-1.8-.19-3.72-.3-5.6-.63a2.69,2.69,0,0,1-1.83-1.2c-1.57-3.91-3-7.91-4.61-12.25Z" transform="translate(-138.09 -158.78)"/><circle class="cls-2" cx="41.31" cy="41.25" r="15"/></g></svg>