<svg id="logged_in" xmlns="http://www.w3.org/2000/svg" viewBox="0 0 152.35 130.47"><defs><style>.cls-1{fill:#ccc;}.cls-2{fill:#39b54a;}.cls-3{fill:none;stroke:#ccc;stroke-miterlimit:10;stroke-width:2px;}</style></defs><title>logged_in_svg</title><g id="logged_in-2" data-name="logged in"><path class="cls-1" d="M219.69,205.66c-12.17,16.77-11.45,33.54.85,51.25-14.5,0-28.08.32-41.64-.1-13-.4-26-1.77-38.55-5.53-7.52-2.25-7.76-2.24-6.64-9.75,2.1-14.06,8.22-25.36,22.3-30.88,4.82-1.9,9.58-4,14.3-6.1,2.19-1,3.48-.74,5.16,1.21,10.75,12.48,26,12.76,37,.49C215.08,203.3,217,203.74,219.69,205.66Z" transform="translate(-133.22 -135.14)"/><path class="cls-1" d="M220.39,164c.6,1.86.15,6.7,1.23,6.88,2.68,2-1.08,19.19-3.58,19-1.28,1.84-2.15,4-3.41,5.82-2.48,3.66-4.52,7.88-7.75,10.69-10.9,9.48-26.08,5-32.57-9.14a67.46,67.46,0,0,0-4.9-8.69c-2.93-4.46-5.69-10.63-3.74-15.28,1.63-1.35,1.42-11.86,2.55-18.11,1.93-10.74,8.45-17,18.94-19.23a31.7,31.7,0,0,1,23,3.48c1.32.76,2.92,1.79,3.43,3.07C216.28,149.17,221.79,154.88,220.39,164Z" transform="translate(-133.22 -135.14)"/><path class="cls-2" d="M215.59,231c-.28-18.74,15.2-35,33.56-35.3,20-.29,36.17,14.93,36.41,34.33s-15.14,35.07-34.9,35.57C232,266.06,215.89,250.13,215.59,231Zm52,3a13.54,13.54,0,0,1,2-.27c2.35.09,4.27-.7,4.26-3.27,0-2.92-2.28-3.2-4.65-3.17-4.46.07-8.92-.06-13.38.06-2.32.06-3.77-.27-5-2.8a12.12,12.12,0,0,0-15.38-5.85,12.35,12.35,0,0,0-7.89,14.14c1.12,5.3,5.18,9.34,10.09,10,5.94.82,10.44-1.58,13.59-6.79a6.22,6.22,0,0,1,3.77-2.29c1.82-.38,3.78-.09,6-.09,0,2.31.13,7.62.13,9.44,0,.57,1.88.31,3,.31s3.09,0,3.11-.31c.16-1.82.31-7.11.31-9.11Z" transform="translate(-133.22 -135.14)"/><path class="cls-3" d="M239.89,224.47a5.72,5.72,0,0,1,5.94,5.49,6.48,6.48,0,0,1-6,6.66,6.43,6.43,0,0,1-6-6.39A6,6,0,0,1,239.89,224.47Z" transform="translate(-133.22 -135.14)"/><path class="cls-3" d="M169.41,188.56c-3,.93-6.09-13.92-3.74-15.28,1.63-1.35,1.42-11.86,2.55-18.11" transform="translate(-133.22 -135.14)"/></g></svg>