<svg id="network_state_enabled" xmlns="http://www.w3.org/2000/svg" viewBox="0 0 130.59 123"><defs><style>.cls-1{fill:#dbdbdb;}.cls-2,.cls-3{fill:none;stroke:#dbdbdb;stroke-miterlimit:10;}.cls-2{stroke-width:2px;}.cls-3{stroke-width:4px;}</style></defs><title>network_state_enabled</title><g id="network_status_enabled" data-name="network status enabled"><path class="cls-1" d="M181.85,140a35,35,0,1,1-35,35h0a35,35,0,0,1,35-35m0-2a37,37,0,1,0,37,37,37,37,0,0,0-37-37Z" transform="translate(-118 -138)"/><line class="cls-2" x1="64.05" x2="64.05" y2="73.96"/><path class="cls-2" d="M193.56,141s11.5,7.17,11.5,33.79c0,28.67-11.5,34.2-11.5,34.2" transform="translate(-118 -138)"/><path class="cls-2" d="M171,210s-11.5-7.38-11.5-34.79C159.5,145.7,171,140,171,140" transform="translate(-118 -138)"/><line class="cls-3" x1="26.87" y1="36.98" x2="100.83" y2="36.98"/><line class="cls-3" x1="33.85" y1="19.42" x2="93.85" y2="19.42"/><line class="cls-3" x1="33.85" y1="54.1" x2="93.85" y2="54.1"/><line class="cls-3" x1="63.85" y1="100.66" x2="63.85" y2="73.96"/><line class="cls-3" x1="25.43" y1="86.69" x2="103.5" y2="85.46"/><line class="cls-3" x1="18.04" y1="100.66" x2="18.04" y2="92.03"/><line class="cls-3" x1="113.15" y1="100.25" x2="113.15" y2="91.62"/><path class="cls-3" d="M136,230c0-2.95,3.86-5.34,8.63-5.34" transform="translate(-118 -138)"/><path class="cls-3" d="M231.15,229.62c0-3.4-4.41-6.16-9.86-6.16" transform="translate(-118 -138)"/><rect class="cls-2" x="48.68" y="100.33" width="33.23" height="21.67"/><rect class="cls-2" x="96.36" y="100.33" width="33.23" height="21.67"/><rect class="cls-2" x="1" y="100.33" width="33.23" height="21.67"/></g></svg>