<svg id="warning_disabled" xmlns="http://www.w3.org/2000/svg" width="118.69" height="104.69" viewBox="0 0 118.69 104.69">
  <defs>
    <style>
      .cls-1 {
        opacity: 0.25;
      }

      .cls-2, .cls-3 {
        fill: none;
        stroke: #c5c5c5;
        stroke-miterlimit: 10;
      }

      .cls-2 {
        stroke-width: 2px;
      }
    </style>
  </defs>
  <title>warning_disabled</title>
  <g id="warning_status_disabled" data-name="warning status disabled" class="cls-1">
    <path class="cls-2" d="M187.28,251.68H135.1c-5.44,0-7.47-3.53-4.7-8.33q26.08-45.25,52.25-90.48c3-5.21,6.86-5.13,9.9.14l52,90.22c2.87,5,.89,8.47-4.8,8.47H187.24Zm-42.06-11.39h84.64L187.54,167Z" transform="translate(-128.17 -148.01)"/>
    <path class="cls-3" d="M191.88,200.27c-.33,4.47-.72,9.91-1.15,15.34a23.16,23.16,0,0,1-.45,2.32,2.77,2.77,0,0,1-2.93,2.6h-.14a2.64,2.64,0,0,1-2.88-2.37.28.28,0,0,1,0-.09c-.34-2.17-.69-4.34-.86-6.52q-.61-7.89-1-15.8a8.64,8.64,0,0,1,.31-2.86c.65-2.38,2.35-3.37,4.74-3.31s4,1.16,4.34,3.44A55,55,0,0,1,191.88,200.27Z" transform="translate(-128.17 -148.01)"/>
    <path class="cls-3" d="M187.29,234.15a4.9,4.9,0,1,1,5-4.8h0A5,5,0,0,1,187.29,234.15Z" transform="translate(-128.17 -148.01)"/>
  </g>
</svg>
